<svg xmlns="http://www.w3.org/2000/svg" xmlns:xlink="http://www.w3.org/1999/xlink" width="1100" height="610"><g transform="translate(-60 -40)"><path d="M400 60h240v60H400z" fill="none"/><use xlink:href="#a" transform="matrix(1,0,0,1,405,65) translate(38.099999999999994 17.799999999999997)"/><use xlink:href="#b" transform="matrix(1,0,0,1,405,65) translate(145.95 17.799999999999997)"/><use xlink:href="#c" transform="matrix(1,0,0,1,405,65) translate(164.9 17.799999999999997)"/><use xlink:href="#d" transform="matrix(1,0,0,1,405,65) translate(56.074999999999996 39.4)"/><use xlink:href="#e" transform="matrix(1,0,0,1,405,65) translate(106.025 39.4)"/><path d="M440 240h160v40H440z" stroke="#000" stroke-width="2" fill="#fff"/><use xlink:href="#f" transform="matrix(1,0,0,1,445,245) translate(44.55 18.6)"/><path d="M440 300h160v40H440z" stroke="#000" stroke-width="2" fill="#fff"/><use xlink:href="#f" transform="matrix(1,0,0,1,445,305) translate(44.55 18.6)"/><path d="M440 360h160v40H440z" stroke="#000" stroke-width="2" fill="#fff"/><use xlink:href="#f" transform="matrix(1,0,0,1,445,365) translate(44.55 18.6)"/><path d="M304 240c8.84 0 16 8.95 16 20s-7.16 20-16 20h-48c-8.84 0-16-8.95-16-20s7.16-20 16-20z" stroke="#000" stroke-width="2" fill="#fff"/><use xlink:href="#g" transform="matrix(1,0,0,1,245,245) translate(8.549999999999997 18.6)"/><path d="M304 300c8.84 0 16 8.95 16 20s-7.16 20-16 20h-48c-8.84 0-16-8.95-16-20s7.16-20 16-20z" stroke="#000" stroke-width="2" fill="#fff"/><use xlink:href="#g" transform="matrix(1,0,0,1,245,305) translate(8.549999999999997 18.6)"/><path d="M304 360c8.84 0 16 8.95 16 20s-7.16 20-16 20h-48c-8.84 0-16-8.95-16-20s7.16-20 16-20z" stroke="#000" stroke-width="2" fill="#fff"/><use xlink:href="#g" transform="matrix(1,0,0,1,245,365) translate(8.549999999999997 18.6)"/><path d="M780 300h160v40H780z" stroke="#000" stroke-width="2" fill="#fff"/><use xlink:href="#h" transform="matrix(1,0,0,1,785,305) translate(41.05 18.6)"/><path d="M600 260l8 .16 7.14.45 6.5.7 5.95.87 5.54 1.06 5.23 1.23 5 1.4 4.87 1.57 4.8 1.8 4.84 2.02 5.04 2.37 5.5 2.88 6.56 3.8 12.24 7.85 17.8 11.55 6.57 3.8 5.48 2.88 5.04 2.37 4.84 2.03 4.8 1.8 4.86 1.57 5 1.4 5.24 1.22 5.55 1.06 5.97.88 6.5.7 7.14.44 8 .16" stroke="#000" stroke-width="2" fill="none"/><path d="M600.04 259l-.04 1.07V259zM780 320l-14.44 4.06.37-9.26z"/><path d="M780 318.93v2.1l-15.5 4.36.5-12.02zm-13.4 3.8l10.17-2.86-9.9-3.66z"/><path d="M600 320h180" stroke="#000" stroke-width="2" fill="none"/><path d="M600 321v-2zM780 320l-14.27 4.64v-9.28z"/><path d="M780 318.95v2.1L764.73 326v-12zm-13.27 4.3l10.03-3.25-10.03-3.26z"/><path d="M600 380l8-.16 7.14-.45 6.5-.7 5.95-.87 5.54-1.06 5.23-1.23 5-1.4 4.87-1.57 4.8-1.8 4.84-2.02 5.04-2.37 5.5-2.88 6.56-3.8 12.24-7.85 17.8-11.55 6.57-3.8 5.48-2.88 5.04-2.37 4.84-2.03 4.8-1.8 4.86-1.57 5-1.4 5.24-1.22 5.55-1.06 5.97-.88 6.5-.7 7.14-.44 8-.16" stroke="#000" stroke-width="2" fill="none"/><path d="M600.04 381H600v-1.07zM780 320l-14.07 5.2-.37-9.26z"/><path d="M780 318.96v2.1l-15 5.56-.5-12zm-13.12 4.83l9.9-3.67-10.17-2.85z"/><path d="M206 240c7.73 0 14 8.95 14 20s-6.27 20-14 20H94c-7.73 0-14-8.95-14-20s6.27-20 14-20z" stroke="#000" stroke-width="2" fill="#fff"/><path d="M206 280c-7.73 0-14-8.95-14-20s6.27-20 14-20" stroke="#000" stroke-width="2" fill="none"/><use xlink:href="#i" transform="matrix(1,0,0,1,85,245) translate(14.574999999999996 18.6)"/><path d="M220 260h19" stroke="#000" stroke-width="2" fill="none"/><path d="M220 261h-.12l.12-1-.04-1h.04zM240 260l.04 1H239v-2h1.12z"/><path d="M206 300c7.73 0 14 8.95 14 20s-6.27 20-14 20H94c-7.73 0-14-8.95-14-20s6.27-20 14-20z" stroke="#000" stroke-width="2" fill="#fff"/><path d="M206 340c-7.73 0-14-8.95-14-20s6.27-20 14-20" stroke="#000" stroke-width="2" fill="none"/><use xlink:href="#i" transform="matrix(1,0,0,1,85,305) translate(14.574999999999996 18.6)"/><path d="M220 320h19" stroke="#000" stroke-width="2" fill="none"/><path d="M220 321h-.12l.12-1-.04-1h.04zM240 320l.04 1H239v-2h1.12z"/><path d="M206 360c7.73 0 14 8.95 14 20s-6.27 20-14 20H94c-7.73 0-14-8.95-14-20s6.27-20 14-20z" stroke="#000" stroke-width="2" fill="#fff"/><path d="M206 400c-7.73 0-14-8.95-14-20s6.27-20 14-20" stroke="#000" stroke-width="2" fill="none"/><use xlink:href="#i" transform="matrix(1,0,0,1,85,365) translate(14.574999999999996 18.6)"/><path d="M220 380h20" stroke="#000" stroke-width="2" fill="none"/><path d="M220 381h-.12l.12-1-.04-1h.04zM240 380l.04 1H240v-2h.12z"/><path d="M350 360h40v40h-40z" stroke="#000" stroke-width="2" fill="#fff"/><use xlink:href="#j" transform="matrix(1,0,0,1,355,365) translate(3 18.6)"/><path d="M360 360h40v40h-40z" stroke="#000" stroke-width="2" fill="#fff"/><use xlink:href="#j" transform="matrix(1,0,0,1,365,365) translate(3 18.6)"/><path d="M370 360h40v40h-40z" stroke="#000" stroke-width="2" fill="#fff"/><use xlink:href="#j" transform="matrix(1,0,0,1,375,365) translate(3 18.6)"/><path d="M350 300h40v40h-40z" stroke="#000" stroke-width="2" fill="#fff"/><use xlink:href="#j" transform="matrix(1,0,0,1,355,305) translate(3 18.6)"/><path d="M360 300h40v40h-40z" stroke="#000" stroke-width="2" fill="#fff"/><use xlink:href="#j" transform="matrix(1,0,0,1,365,305) translate(3 18.6)"/><path d="M370 300h40v40h-40z" stroke="#000" stroke-width="2" fill="#fff"/><use xlink:href="#j" transform="matrix(1,0,0,1,375,305) translate(3 18.6)"/><path d="M350 240h40v40h-40z" stroke="#000" stroke-width="2" fill="#fff"/><use xlink:href="#j" transform="matrix(1,0,0,1,355,245) translate(3 18.6)"/><path d="M360 240h40v40h-40z" stroke="#000" stroke-width="2" fill="#fff"/><use xlink:href="#j" transform="matrix(1,0,0,1,365,245) translate(3 18.6)"/><path d="M370 240h40v40h-40z" stroke="#000" stroke-width="2" fill="#fff"/><use xlink:href="#j" transform="matrix(1,0,0,1,375,245) translate(3 18.6)"/><path d="M320 260h30" stroke="#000" stroke-width="2" fill="none"/><path d="M320 261h-.12l.12-1-.04-1h.04zM350 260l-14.27 4.64v-9.28z"/><path d="M350 258.95v2.1L334.73 266v-12zm-13.27 4.3l10.03-3.25-10.03-3.26z"/><path d="M320 320h30" stroke="#000" stroke-width="2" fill="none"/><path d="M320 321h-.12l.12-1-.04-1h.04zM350 320l-14.27 4.64v-9.28z"/><path d="M350 318.95v2.1L334.73 326v-12zm-13.27 4.3l10.03-3.25-10.03-3.26z"/><path d="M320 380h29" stroke="#000" stroke-width="2" fill="none"/><path d="M320 381h-.12l.12-1-.04-1h.04zM349 380l-14.27 4.64v-9.28z"/><path d="M350 379.27v1.46L333.73 386v-12zm-14.27 4l10.03-3.27-10.03-3.26z"/><path d="M410 320h29" stroke="#000" stroke-width="2" fill="none"/><path d="M439 320l-14.27 4.64v-9.28z"/><path d="M440 319.27v1.46L423.73 326v-12zm-14.27 4l10.03-3.27-10.03-3.26z"/><path d="M410 260h29" stroke="#000" stroke-width="2" fill="none"/><path d="M439 260l-14.27 4.64v-9.28z"/><path d="M440 259.27v1.46L423.73 266v-12zm-14.27 4l10.03-3.27-10.03-3.26z"/><path d="M410 380h29" stroke="#000" stroke-width="2" fill="none"/><path d="M439 380l-14.27 4.64v-9.28z"/><path d="M440 379.27v1.46L423.73 386v-12zm-14.27 4l10.03-3.27-10.03-3.26z"/><path d="M970 300h40v40h-40z" stroke="#000" stroke-width="2" fill="#fff"/><use xlink:href="#j" transform="matrix(1,0,0,1,975,305) translate(3 18.6)"/><path d="M980 300h40v40h-40z" stroke="#000" stroke-width="2" fill="#fff"/><use xlink:href="#j" transform="matrix(1,0,0,1,985,305) translate(3 18.6)"/><path d="M990 300h40v40h-40z" stroke="#000" stroke-width="2" fill="#fff"/><use xlink:href="#j" transform="matrix(1,0,0,1,995,305) translate(3 18.6)"/><path d="M940 320h30" stroke="#000" stroke-width="2" fill="none"/><path d="M970 320l-14.27 4.64v-9.28z"/><path d="M970 318.95v2.1L954.73 326v-12zm-13.27 4.3l10.03-3.25-10.03-3.26z"/><path d="M1030 320h30" stroke="#000" stroke-width="2" fill="none"/><path d="M1030 321v-2zM1060 320l-14.27 4.64v-9.28z"/><path d="M1060.13 319l-.13 1 .04 1.04-15.3 4.97v-12zm-13.4 4.26l10.03-3.26-10.03-3.26z"/><path d="M1124 300c8.84 0 16 8.95 16 20s-7.16 20-16 20h-48c-8.84 0-16-8.95-16-20s7.16-20 16-20z" stroke="#000" stroke-width="2" fill="#fff"/><use xlink:href="#k" transform="matrix(1,0,0,1,1065,305) translate(17.525 18.6)"/><path d="M210 540h30v20h-30z" stroke="#000" stroke-width="2" fill="#fff"/><use xlink:href="#l" transform="matrix(1,0,0,1,215,545) translate(1.5 14.4)"/><path d="M240 540h60v20h-60z" stroke="#000" stroke-width="2" fill="#fff"/><use xlink:href="#m" transform="matrix(1,0,0,1,245,545) translate(6.049999999999997 14.4)"/><path d="M300 540h60v20h-60z" stroke="#000" stroke-width="2" fill="#fff"/><use xlink:href="#n" transform="matrix(1,0,0,1,305,545) translate(11.049999999999999 14.4)"/><path d="M360 540h60v20h-60z" stroke="#000" stroke-width="2" fill="#fff"/><use xlink:href="#o" transform="matrix(1,0,0,1,365,545) translate(3.549999999999997 14.4)"/><path d="M390 400l-.17 8.12-.46 7.46-.74 7.03-1 6.83-1.32 6.88-1.7 7.3-2.36 8.4-4.1 12.54-14.07 40.74-3.6 12.83-.47 1.9" fill="none"/><path d="M390 400l-.17 8.12-.14 2.24m-.87 10.32l-.2 1.93-1 6.83-1.32 6.88-1.1 4.77m-2.7 10l-.26.94-4.1 12.54-2.15 6.2m-3.4 9.8l-6.75 19.6m-3.1 9.87l-2.27 8.1-.48 1.9" stroke="#000" stroke-width="2" fill="none"/><path d="M391 400.04l-1.04-.04H391z"/><path d="M360 520l-.67-14.98 8.94 2.46z" stroke="#000" stroke-width="2" fill="#fff"/><path d="M415 420h265v100H415z" stroke="#000" stroke-width="2" fill="none"/><use xlink:href="#p" transform="matrix(1,0,0,1,420,425) translate(0 23.396484375)"/><use xlink:href="#q" transform="matrix(1,0,0,1,420,425) translate(64.810546875 23.396484375)"/><use xlink:href="#r" transform="matrix(1,0,0,1,420,425) translate(36.01 41.396484375)"/><use xlink:href="#s" transform="matrix(1,0,0,1,420,425) translate(111.62230468749999 41.396484375)"/><use xlink:href="#t" transform="matrix(1,0,0,1,420,425) translate(36.01 59.396484375)"/><use xlink:href="#u" transform="matrix(1,0,0,1,420,425) translate(122.42406249999999 59.396484375)"/><use xlink:href="#v" transform="matrix(1,0,0,1,420,425) translate(0 77.396484375)"/><path d="M735 420h305v100H735z" stroke="#000" stroke-width="2" fill="none"/><use xlink:href="#w" transform="matrix(1,0,0,1,740,425) translate(0 23.396484375)"/><use xlink:href="#q" transform="matrix(1,0,0,1,740,425) translate(97.2158203125 23.396484375)"/><use xlink:href="#r" transform="matrix(1,0,0,1,740,425) translate(36.01 41.396484375)"/><use xlink:href="#x" transform="matrix(1,0,0,1,740,425) translate(111.62230468749999 41.396484375)"/><use xlink:href="#y" transform="matrix(1,0,0,1,740,425) translate(219.6398828125 41.396484375)"/><use xlink:href="#t" transform="matrix(1,0,0,1,740,425) translate(36.01 59.396484375)"/><use xlink:href="#z" transform="matrix(1,0,0,1,740,425) translate(122.42406249999999 59.396484375)"/><use xlink:href="#A" transform="matrix(1,0,0,1,740,425) translate(230.441640625 59.396484375)"/><use xlink:href="#v" transform="matrix(1,0,0,1,740,425) translate(0 77.396484375)"/><path d="M210 600h30v20h-30z" stroke="#000" stroke-width="2" fill="#fff"/><use xlink:href="#l" transform="matrix(1,0,0,1,215,605) translate(1.5 14.4)"/><path d="M240 600h60v20h-60z" stroke="#000" stroke-width="2" fill="#fff"/><use xlink:href="#m" transform="matrix(1,0,0,1,245,605) translate(6.049999999999997 14.4)"/><path d="M300 600h60v20h-60z" stroke="#000" stroke-width="2" fill="#fff"/><use xlink:href="#n" transform="matrix(1,0,0,1,305,605) translate(11.049999999999999 14.4)"/><path d="M360 600h60v20h-60z" stroke="#000" stroke-width="2" fill="#fff"/><use xlink:href="#B" transform="matrix(1,0,0,1,365,605) translate(10.5 14.4)"/><path d="M735 600h30v20h-30z" stroke="#000" stroke-width="2" fill="#fff"/><use xlink:href="#l" transform="matrix(1,0,0,1,740,605) translate(1.5 14.4)"/><path d="M765 600h60v20h-60z" stroke="#000" stroke-width="2" fill="#fff"/><g><use xlink:href="#m" transform="matrix(1,0,0,1,770,605) translate(6.049999999999997 14.4)"/></g><path d="M825 600h60v20h-60z" stroke="#000" stroke-width="2" fill="#fff"/><g><use xlink:href="#n" transform="matrix(1,0,0,1,830,605) translate(11.049999999999999 14.4)"/></g><path d="M885 600h60v20h-60z" stroke="#000" stroke-width="2" fill="#fff"/><g><use xlink:href="#C" transform="matrix(1,0,0,1,890,605) translate(3.7250000000000014 14.4)"/></g><path d="M945 600h60v20h-60z" stroke="#000" stroke-width="2" fill="#fff"/><g><use xlink:href="#D" transform="matrix(1,0,0,1,950,605) translate(1.0249999999999986 14.4)"/></g><path d="M420 610h314" stroke="#000" stroke-width="2" fill="none"/><path d="M734 610l-14.27 4.64v-9.28z"/><path d="M735 609.27v1.46L718.73 616v-12zm-14.27 4l10.03-3.27-10.03-3.26z"/><path d="M1005 610h55" stroke="#000" stroke-width="2" fill="none"/><path d="M1060 610l-14.27 4.64v-9.28z"/><path d="M1060.13 609l-.13 1 .04 1.04-15.3 4.97v-12zm-13.4 4.26l10.03-3.26-10.03-3.26z"/><path d="M1124 590c8.84 0 16 8.95 16 20s-7.16 20-16 20h-48c-8.84 0-16-8.95-16-20s7.16-20 16-20z" stroke="#000" stroke-width="2" fill="#fff"/><g><use xlink:href="#g" transform="matrix(1,0,0,1,1065,595) translate(8.549999999999997 18.6)"/></g><path d="M140 590h60v40h-60z" fill="none"/><g><use xlink:href="#E" transform="matrix(1,0,0,1,145,595) translate(0.5249999999999986 18.6)"/></g><defs><path d="M240 0l2-218c-23 76-54 145-80 218h-23L58-218 59 0H30v-248h44l77 211c21-75 51-140 76-211h43V0h-30" id="F"/><path d="M141-36C126-15 110 5 73 4 37 3 15-17 15-53c-1-64 63-63 125-63 3-35-9-54-41-54-24 1-41 7-42 31l-33-3c5-37 33-52 76-52 45 0 72 20 72 64v82c-1 20 7 32 28 27v20c-31 9-61-2-59-35zM48-53c0 20 12 33 32 33 41-3 63-29 60-74-43 2-92-5-92 41" id="G"/><path d="M115-194c55 1 70 41 70 98S169 2 115 4C84 4 66-9 55-30l1 105H24l-1-265h31l2 30c10-21 28-34 59-34zm-8 174c40 0 45-34 45-75s-6-73-45-74c-42 0-51 32-51 76 0 43 10 73 51 73" id="H"/><path d="M16-82v-28h88v28H16" id="I"/><path d="M233-177c-1 41-23 64-60 70L243 0h-38l-65-103H63V0H30v-248c88 3 205-21 203 71zM63-129c60-2 137 13 137-47 0-61-80-42-137-45v92" id="J"/><path d="M100-194c63 0 86 42 84 106H49c0 40 14 67 53 68 26 1 43-12 49-29l28 8c-11 28-37 45-77 45C44 4 14-33 15-96c1-61 26-98 85-98zm52 81c6-60-76-77-97-28-3 7-6 17-6 28h103" id="K"/><path d="M85-194c31 0 48 13 60 33l-1-100h32l1 261h-30c-2-10 0-23-3-31C134-8 116 4 85 4 32 4 16-35 15-94c0-66 23-100 70-100zm9 24c-40 0-46 34-46 75 0 40 6 74 45 74 42 0 51-32 51-76 0-42-9-74-50-73" id="L"/><path d="M84 4C-5 8 30-112 23-190h32v120c0 31 7 50 39 49 72-2 45-101 50-169h31l1 190h-30c-1-10 1-25-2-33-11 22-28 36-60 37" id="M"/><path d="M96-169c-40 0-48 33-48 73s9 75 48 75c24 0 41-14 43-38l32 2c-6 37-31 61-74 61-59 0-76-41-82-99-10-93 101-131 147-64 4 7 5 14 7 22l-32 3c-4-21-16-35-41-35" id="N"/><g id="a"><use transform="matrix(0.05,0,0,0.05,0,0)" xlink:href="#F"/><use transform="matrix(0.05,0,0,0.05,14.950000000000001,0)" xlink:href="#G"/><use transform="matrix(0.05,0,0,0.05,24.950000000000003,0)" xlink:href="#H"/><use transform="matrix(0.05,0,0,0.05,34.95,0)" xlink:href="#I"/><use transform="matrix(0.05,0,0,0.05,40.900000000000006,0)" xlink:href="#J"/><use transform="matrix(0.05,0,0,0.05,53.85,0)" xlink:href="#K"/><use transform="matrix(0.05,0,0,0.05,63.85,0)" xlink:href="#L"/><use transform="matrix(0.05,0,0,0.05,73.85000000000001,0)" xlink:href="#M"/><use transform="matrix(0.05,0,0,0.05,83.85000000000001,0)" xlink:href="#N"/><use transform="matrix(0.05,0,0,0.05,92.85000000000001,0)" xlink:href="#K"/></g><path d="M24-231v-30h32v30H24zM24 0v-190h32V0H24" id="O"/><path d="M117-194c89-4 53 116 60 194h-32v-121c0-31-8-49-39-48C34-167 62-67 57 0H25l-1-190h30c1 10-1 24 2 32 11-22 29-35 61-36" id="P"/><g id="b"><use transform="matrix(0.05,0,0,0.05,0,0)" xlink:href="#O"/><use transform="matrix(0.05,0,0,0.05,3.95,0)" xlink:href="#P"/></g><path d="M30-248c87 1 191-15 191 75 0 78-77 80-158 76V0H30v-248zm33 125c57 0 124 11 124-50 0-59-68-47-124-48v98" id="Q"/><path d="M155-56V0h-30v-56H8v-25l114-167h33v167h35v25h-35zm-30-156c-27 46-58 90-88 131h88v-131" id="R"/><path d="M33-154v-36h34v36H33zM33 0v-36h34V0H33" id="S"/><g id="c"><use transform="matrix(0.05,0,0,0.05,0,0)" xlink:href="#Q"/><use transform="matrix(0.05,0,0,0.05,12,0)" xlink:href="#R"/><use transform="matrix(0.05,0,0,0.05,22,0)" xlink:href="#S"/></g><g id="d"><use transform="matrix(0.05,0,0,0.05,0,0)" xlink:href="#F"/><use transform="matrix(0.05,0,0,0.05,14.950000000000001,0)" xlink:href="#K"/><use transform="matrix(0.05,0,0,0.05,24.950000000000003,0)" xlink:href="#G"/><use transform="matrix(0.05,0,0,0.05,34.95,0)" xlink:href="#P"/></g><path d="M141 0L90-78 38 0H4l68-98-65-92h35l48 74 47-74h35l-64 92 68 98h-35" id="T"/><path d="M210-169c-67 3-38 105-44 169h-31v-121c0-29-5-50-35-48C34-165 62-65 56 0H25l-1-190h30c1 10-1 24 2 32 10-44 99-50 107 0 11-21 27-35 58-36 85-2 47 119 55 194h-31v-121c0-29-5-49-35-48" id="U"/><path d="M24 0v-261h32V0H24" id="V"/><g id="e"><use transform="matrix(0.05,0,0,0.05,0,0)" xlink:href="#K"/><use transform="matrix(0.05,0,0,0.05,10,0)" xlink:href="#T"/><use transform="matrix(0.05,0,0,0.05,19,0)" xlink:href="#G"/><use transform="matrix(0.05,0,0,0.05,29,0)" xlink:href="#U"/><use transform="matrix(0.05,0,0,0.05,43.95,0)" xlink:href="#H"/><use transform="matrix(0.05,0,0,0.05,53.95,0)" xlink:href="#V"/><use transform="matrix(0.05,0,0,0.05,57.900000000000006,0)" xlink:href="#K"/></g><path d="M114-163C36-179 61-72 57 0H25l-1-190h30c1 12-1 29 2 39 6-27 23-49 58-41v29" id="W"/><g id="f"><use transform="matrix(0.05,0,0,0.05,0,0)" xlink:href="#F"/><use transform="matrix(0.05,0,0,0.05,14.950000000000001,0)" xlink:href="#G"/><use transform="matrix(0.05,0,0,0.05,24.950000000000003,0)" xlink:href="#H"/><use transform="matrix(0.05,0,0,0.05,34.95,0)" xlink:href="#H"/><use transform="matrix(0.05,0,0,0.05,44.95,0)" xlink:href="#K"/><use transform="matrix(0.05,0,0,0.05,54.95,0)" xlink:href="#W"/></g><path d="M185-189c-5-48-123-54-124 2 14 75 158 14 163 119 3 78-121 87-175 55-17-10-28-26-33-46l33-7c5 56 141 63 141-1 0-78-155-14-162-118-5-82 145-84 179-34 5 7 8 16 11 25" id="X"/><path d="M108 0H70L1-190h34L89-25l56-165h34" id="Y"/><g id="g"><use transform="matrix(0.05,0,0,0.05,0,0)" xlink:href="#X"/><use transform="matrix(0.05,0,0,0.05,12,0)" xlink:href="#K"/><use transform="matrix(0.05,0,0,0.05,22,0)" xlink:href="#W"/><use transform="matrix(0.05,0,0,0.05,27.950000000000003,0)" xlink:href="#Y"/><use transform="matrix(0.05,0,0,0.05,36.95,0)" xlink:href="#K"/><use transform="matrix(0.05,0,0,0.05,46.95,0)" xlink:href="#W"/></g><g id="h"><use transform="matrix(0.05,0,0,0.05,0,0)" xlink:href="#J"/><use transform="matrix(0.05,0,0,0.05,12.950000000000001,0)" xlink:href="#K"/><use transform="matrix(0.05,0,0,0.05,22.950000000000003,0)" xlink:href="#L"/><use transform="matrix(0.05,0,0,0.05,32.95,0)" xlink:href="#M"/><use transform="matrix(0.05,0,0,0.05,42.95,0)" xlink:href="#N"/><use transform="matrix(0.05,0,0,0.05,51.95,0)" xlink:href="#K"/><use transform="matrix(0.05,0,0,0.05,61.95,0)" xlink:href="#W"/></g><path d="M190 0L58-211 59 0H30v-248h39L202-35l-2-213h31V0h-41" id="Z"/><path d="M115-194c53 0 69 39 70 98 0 66-23 100-70 100C84 3 66-7 56-30L54 0H23l1-261h32v101c10-23 28-34 59-34zm-8 174c40 0 45-34 45-75 0-40-5-75-45-74-42 0-51 32-51 76 0 43 10 73 51 73" id="aa"/><path d="M135-143c-3-34-86-38-87 0 15 53 115 12 119 90S17 21 10-45l28-5c4 36 97 45 98 0-10-56-113-15-118-90-4-57 82-63 122-42 12 7 21 19 24 35" id="ab"/><g id="i"><use transform="matrix(0.05,0,0,0.05,0,0)" xlink:href="#Z"/><use transform="matrix(0.05,0,0,0.05,12.950000000000001,0)" xlink:href="#M"/><use transform="matrix(0.05,0,0,0.05,22.950000000000003,0)" xlink:href="#U"/><use transform="matrix(0.05,0,0,0.05,37.900000000000006,0)" xlink:href="#aa"/><use transform="matrix(0.05,0,0,0.05,47.900000000000006,0)" xlink:href="#K"/><use transform="matrix(0.05,0,0,0.05,57.900000000000006,0)" xlink:href="#W"/><use transform="matrix(0.05,0,0,0.05,63.85,0)" xlink:href="#ab"/></g><path d="M143 0L79-87 56-68V0H24v-261h32v163l83-92h37l-77 82L181 0h-38" id="ac"/><path d="M59-47c-2 24 18 29 38 22v24C64 9 27 4 27-40v-127H5v-23h24l9-43h21v43h35v23H59v120" id="ad"/><g id="j"><use transform="matrix(0.05,0,0,0.05,0,0)" xlink:href="#H"/><use transform="matrix(0.05,0,0,0.05,10,0)" xlink:href="#ac"/><use transform="matrix(0.05,0,0,0.05,19,0)" xlink:href="#ad"/></g><g id="k"><use transform="matrix(0.05,0,0,0.05,0,0)" xlink:href="#X"/><use transform="matrix(0.05,0,0,0.05,12,0)" xlink:href="#O"/><use transform="matrix(0.05,0,0,0.05,15.949999999999998,0)" xlink:href="#P"/><use transform="matrix(0.05,0,0,0.05,25.950000000000003,0)" xlink:href="#ac"/></g><path d="M33 0v-248h34V0H33" id="ae"/><g id="l"><use transform="matrix(0.05,0,0,0.05,0,0)" xlink:href="#ae"/><use transform="matrix(0.05,0,0,0.05,5,0)" xlink:href="#Q"/></g><path d="M232-93c-1 65-40 97-104 97C67 4 28-28 28-90v-158h33c8 89-33 224 67 224 102 0 64-133 71-224h33v155" id="af"/><path d="M30-248c118-7 216 8 213 122C240-48 200 0 122 0H30v-248zM63-27c89 8 146-16 146-99s-60-101-146-95v194" id="ag"/><g id="m"><use transform="matrix(0.05,0,0,0.05,0,0)" xlink:href="#af"/><use transform="matrix(0.05,0,0,0.05,12.950000000000001,0)" xlink:href="#ag"/><use transform="matrix(0.05,0,0,0.05,25.900000000000002,0)" xlink:href="#Q"/></g><g id="n"><use transform="matrix(0.05,0,0,0.05,0,0)" xlink:href="#F"/><use transform="matrix(0.05,0,0,0.05,14.950000000000001,0)" xlink:href="#J"/></g><path d="M33 0v-38h34V0H33" id="ah"/><g id="o"><use transform="matrix(0.05,0,0,0.05,0,0)" xlink:href="#Z"/><use transform="matrix(0.05,0,0,0.05,12.950000000000001,0)" xlink:href="#M"/><use transform="matrix(0.05,0,0,0.05,22.950000000000003,0)" xlink:href="#U"/><use transform="matrix(0.05,0,0,0.05,37.900000000000006,0)" xlink:href="#ah"/></g><path d="M285-1169c8 382 2 780 4 1169H129v-1349h237c86 239 188 461 253 720 69-258 169-481 255-720h225V0H937c2-390-5-788 6-1169-75 255-170 488-259 729H547c-90-240-185-475-262-729" id="ai"/><path d="M1000-272c3 95 12 159 101 161 21 0 41-3 59-7V-6c-44 10-86 16-139 16-141 2-191-84-197-217h-6C748-76 648 20 446 20c-207 0-318-120-318-322 0-266 194-348 454-354l236-4c12-191-40-305-222-305-140 0-220 47-232 172l-188-17c33-204 181-292 423-292 255 0 401 118 401 364v466zm-683-27c0 109 63 184 175 182 166-3 259-96 306-217 24-65 20-120 20-200-232 7-501-28-501 235" id="aj"/><path d="M698-1104c312 3 392 244 392 558 0 315-82 566-392 566-169 0-277-65-331-184h-5c8 188 2 394 4 589H185V-858c0-76-1-156-6-224h175c6 52 9 120 10 178h4c58-122 150-202 330-200zm-49 991c225 0 255-203 255-433 0-225-32-419-253-419-236 0-285 192-285 441 0 237 53 411 283 411" id="ak"/><path d="M891-1484c-201 251-362 514-362 954 0 441 161 704 362 955H701C500 176 342-90 342-532c0-440 159-704 359-952h190" id="al"/><path d="M528-1484c201 248 357 511 357 952 0 442-156 709-357 957H336C537 174 700-89 700-530c0-440-163-703-364-954h192" id="am"/><g id="p"><use transform="matrix(0.0087890625,0,0,0.0087890625,0,0)" xlink:href="#ai"/><use transform="matrix(0.0087890625,0,0,0.0087890625,10.8017578125,0)" xlink:href="#aj"/><use transform="matrix(0.0087890625,0,0,0.0087890625,21.603515625,0)" xlink:href="#ak"/><use transform="matrix(0.0087890625,0,0,0.0087890625,32.4052734375,0)" xlink:href="#al"/><use transform="matrix(0.0087890625,0,0,0.0087890625,43.20703125,0)" xlink:href="#am"/></g><path d="M677 91c1 136 41 195 171 195h213v139H796c-186-8-294-116-294-303v-351c-3-164-120-222-275-232v-137c155-10 275-69 275-231v-352c6-189 106-303 294-303h265v139H848c-126-3-171 67-171 195v346c-5 158-108 234-231 274 128 36 231 115 231 274V91" id="an"/><use transform="matrix(0.0087890625,0,0,0.0087890625,0,0)" xlink:href="#an" id="q"/><path d="M682 16c-209 0-323-80-324-285v-671H190v-142h170l58-282h120v282h432v142H538v652c2 114 60 155 182 155 106 0 209-16 297-34v137C921-4 806 16 682 16" id="ao"/><path d="M631 20c-350 0-501-215-501-562 0-355 162-560 502-560 250 0 399 118 446 323l-192 14c-23-124-109-196-262-196-242 0-305 171-305 415 1 245 61 427 304 427 151 0 248-77 267-215l190 12C1039-107 883 20 631 20" id="ap"/><path d="M648-963c-190 6-283 138-283 336V0H185v-1484h181c-2 197 6 404-9 587h3c62-120 159-205 339-205 242 0 351 135 350 381V0H868v-695c1-168-57-273-220-268" id="aq"/><path d="M496 0v-299h235V0H496zm0-783v-299h235v299H496" id="ar"/><g id="r"><use transform="matrix(0.0087890625,0,0,0.0087890625,0,0)" xlink:href="#ai"/><use transform="matrix(0.0087890625,0,0,0.0087890625,10.8017578125,0)" xlink:href="#aj"/><use transform="matrix(0.0087890625,0,0,0.0087890625,21.603515625,0)" xlink:href="#ao"/><use transform="matrix(0.0087890625,0,0,0.0087890625,32.4052734375,0)" xlink:href="#ap"/><use transform="matrix(0.0087890625,0,0,0.0087890625,43.20703125,0)" xlink:href="#aq"/><use transform="matrix(0.0087890625,0,0,0.0087890625,54.0087890625,0)" xlink:href="#ar"/></g><path d="M912-211c-10-84-18-177-18-274v-864h172V0H836L316-1130c7 79 16 167 16 254V0H162v-1349h222" id="as"/><path d="M528 20c-247 0-343-132-343-381v-721h180v686c-4 177 45 284 224 277 194-8 279-136 279-336v-627h181c3 360-6 732 6 1082H885c-4-54-7-126-8-185h-3C809-64 714 20 528 20" id="at"/><path d="M904-1102c199 0 220 177 220 381V0H956v-686c-3-114 0-215-60-264-70-33-125-4-158 71-26 56-39 140-39 252V0H531v-686c-3-114-1-215-61-264-78-41-136 24-157 84-24 69-39 159-39 259V0H105c-3-360 6-732-6-1082h149c6 50 3 123 8 175 36-100 83-195 216-195 135 0 166 79 196 196 42-105 93-196 236-196" id="au"/><path d="M365-904c58-129 161-200 334-200 130 0 228 46 293 138s98 233 98 420c0 189-34 331-102 425S824 20 698 20c-170 0-275-64-336-184 0 55-3 116-9 164H179c5-68 6-147 6-223v-1261h180c-2 193 4 394-4 580h4zm283 791c221 0 256-197 256-427 0-229-34-425-254-425-236 0-285 195-285 441 0 237 53 411 283 411" id="av"/><path d="M617-1102c355 0 481 238 477 599H322c5 222 84 388 301 388 144 0 244-59 284-166l158 45C1002-72 854 20 623 20c-342 0-490-220-490-568 0-346 151-554 484-554zm291 461c-18-192-90-328-289-328-194 0-287 128-295 328h584" id="aw"/><path d="M839-1102c70 0 148 7 206 17v167c-112-18-268-36-363 15-129 69-208 203-208 395V0H294c-10-367 32-789-52-1082h171c21 75 41 161 48 250h5c67-152 152-270 373-270" id="ax"/><g id="s"><use transform="matrix(0.0087890625,0,0,0.0087890625,0,0)" xlink:href="#as"/><use transform="matrix(0.0087890625,0,0,0.0087890625,10.8017578125,0)" xlink:href="#at"/><use transform="matrix(0.0087890625,0,0,0.0087890625,21.603515625,0)" xlink:href="#au"/><use transform="matrix(0.0087890625,0,0,0.0087890625,32.4052734375,0)" xlink:href="#av"/><use transform="matrix(0.0087890625,0,0,0.0087890625,43.20703125,0)" xlink:href="#aw"/><use transform="matrix(0.0087890625,0,0,0.0087890625,54.0087890625,0)" xlink:href="#ax"/></g><path d="M1034 0L896-382H333L196 0H0l510-1349h217L1228 0h-194zM847-531c-77-225-157-447-231-674-69 231-154 451-232 674h463" id="ay"/><path d="M745-142h380V0H143v-142h422v-798H246v-142h499v940zM545-1292v-192h200v192H545" id="az"/><path d="M615-1102c343 0 484 203 482 560-1 347-147 562-488 562-336 0-475-219-479-562-4-349 156-560 485-560zm-8 989c240 0 301-180 301-429 0-245-55-427-290-427-236 0-299 181-299 427 0 243 61 429 288 429" id="aA"/><path d="M706-1102c241 0 344 136 343 381V0H868v-695c1-168-57-273-220-268-190 6-283 138-283 336V0H185c-3-360 6-732-6-1082h170c4 54 7 126 8 185h3c63-121 164-204 346-205" id="aB"/><g id="t"><use transform="matrix(0.0087890625,0,0,0.0087890625,0,0)" xlink:href="#ay"/><use transform="matrix(0.0087890625,0,0,0.0087890625,10.8017578125,0)" xlink:href="#ap"/><use transform="matrix(0.0087890625,0,0,0.0087890625,21.603515625,0)" xlink:href="#ao"/><use transform="matrix(0.0087890625,0,0,0.0087890625,32.4052734375,0)" xlink:href="#az"/><use transform="matrix(0.0087890625,0,0,0.0087890625,43.20703125,0)" xlink:href="#aA"/><use transform="matrix(0.0087890625,0,0,0.0087890625,54.0087890625,0)" xlink:href="#aB"/><use transform="matrix(0.0087890625,0,0,0.0087890625,64.810546875,0)" xlink:href="#ar"/></g><path d="M334-464v-160h560v160H334" id="aC"/><path d="M650-1214c-281 0-336 244-336 533 0 295 60 546 347 546 188 0 263-142 322-282l159 65C1058-155 935 20 659 20c-401 0-546-295-546-701 0-407 135-689 536-689 264 0 391 146 466 335l-168 65c-47-129-127-244-297-244" id="aD"/><g id="u"><use transform="matrix(0.0087890625,0,0,0.0087890625,0,0)" xlink:href="#ay"/><use transform="matrix(0.0087890625,0,0,0.0087890625,10.8017578125,0)" xlink:href="#ap"/><use transform="matrix(0.0087890625,0,0,0.0087890625,21.603515625,0)" xlink:href="#ap"/><use transform="matrix(0.0087890625,0,0,0.0087890625,32.4052734375,0)" xlink:href="#at"/><use transform="matrix(0.0087890625,0,0,0.0087890625,43.20703125,0)" xlink:href="#au"/><use transform="matrix(0.0087890625,0,0,0.0087890625,54.0087890625,0)" xlink:href="#aC"/><use transform="matrix(0.0087890625,0,0,0.0087890625,64.810546875,0)" xlink:href="#aD"/><use transform="matrix(0.0087890625,0,0,0.0087890625,75.6123046875,0)" xlink:href="#aA"/><use transform="matrix(0.0087890625,0,0,0.0087890625,86.4140625,0)" xlink:href="#at"/><use transform="matrix(0.0087890625,0,0,0.0087890625,97.2158203125,0)" xlink:href="#aB"/><use transform="matrix(0.0087890625,0,0,0.0087890625,108.017578125,0)" xlink:href="#ao"/></g><path d="M726 122c-7 187-108 303-294 303H167V286h213c129-2 172-59 172-195v-347c5-160 106-236 230-276-125-36-230-116-230-272v-346c2-128-45-195-172-195H167v-139h265c187 7 294 114 294 303v352c4 162 120 221 275 231v137c-155 10-275 68-275 232v351" id="aE"/><use transform="matrix(0.0087890625,0,0,0.0087890625,0,0)" xlink:href="#aE" id="v"/><path d="M1121-976c0 225-142 341-344 379L1177 0H957L591-575H353V0H162v-1349h482c281 3 477 100 477 373zM633-726c181-1 296-73 296-247 0-149-101-223-304-223H353v470h280" id="aF"/><path d="M865-914c-3-187-2-380-2-570h180v1261c0 76 1 155 6 223H877c-8-49-9-116-10-174h-5C801-44 708 26 530 26c-135 0-234-46-297-139s-95-232-95-419c0-377 131-566 392-566 176 0 271 63 335 184zm-286-51c-222 0-255 197-255 427 0 229 31 425 253 425 237 0 286-195 286-441 0-238-52-411-284-411" id="aG"/><g id="w"><use transform="matrix(0.0087890625,0,0,0.0087890625,0,0)" xlink:href="#aF"/><use transform="matrix(0.0087890625,0,0,0.0087890625,10.8017578125,0)" xlink:href="#aw"/><use transform="matrix(0.0087890625,0,0,0.0087890625,21.603515625,0)" xlink:href="#aG"/><use transform="matrix(0.0087890625,0,0,0.0087890625,32.4052734375,0)" xlink:href="#at"/><use transform="matrix(0.0087890625,0,0,0.0087890625,43.20703125,0)" xlink:href="#ap"/><use transform="matrix(0.0087890625,0,0,0.0087890625,54.0087890625,0)" xlink:href="#aw"/><use transform="matrix(0.0087890625,0,0,0.0087890625,64.810546875,0)" xlink:href="#al"/><use transform="matrix(0.0087890625,0,0,0.0087890625,75.6123046875,0)" xlink:href="#am"/></g><path d="M709-1193V0H519v-1193H76v-156h1076v156H709" id="aH"/><path d="M259 363l169-662h265L382 363H259" id="aI"/><g id="x"><use transform="matrix(0.0087890625,0,0,0.0087890625,0,0)" xlink:href="#aH"/><use transform="matrix(0.0087890625,0,0,0.0087890625,10.8017578125,0)" xlink:href="#aw"/><use transform="matrix(0.0087890625,0,0,0.0087890625,21.603515625,0)" xlink:href="#au"/><use transform="matrix(0.0087890625,0,0,0.0087890625,32.4052734375,0)" xlink:href="#ak"/><use transform="matrix(0.0087890625,0,0,0.0087890625,43.20703125,0)" xlink:href="#ai"/><use transform="matrix(0.0087890625,0,0,0.0087890625,54.0087890625,0)" xlink:href="#aw"/><use transform="matrix(0.0087890625,0,0,0.0087890625,64.810546875,0)" xlink:href="#aj"/><use transform="matrix(0.0087890625,0,0,0.0087890625,75.6123046875,0)" xlink:href="#aB"/><use transform="matrix(0.0087890625,0,0,0.0087890625,86.4140625,0)" xlink:href="#aI"/></g><g id="y"><use transform="matrix(0.0087890625,0,0,0.0087890625,0,0)" xlink:href="#aD"/><use transform="matrix(0.0087890625,0,0,0.0087890625,10.8017578125,0)" xlink:href="#aA"/><use transform="matrix(0.0087890625,0,0,0.0087890625,21.603515625,0)" xlink:href="#at"/><use transform="matrix(0.0087890625,0,0,0.0087890625,32.4052734375,0)" xlink:href="#aB"/><use transform="matrix(0.0087890625,0,0,0.0087890625,43.20703125,0)" xlink:href="#ao"/></g><path d="M1048-32c-2 300-135 456-433 456-222-1-358-88-400-267l184-25c22 99 100 157 222 156 184-2 248-125 248-315 0-64 3-133-2-194C807-100 706-13 524-12c-306 0-381-228-381-537 0-318 85-550 400-550 164 0 271 83 325 202h3c1-60 3-134 12-185h171c-13 339-4 702-6 1050zM585-145c210-8 284-178 284-406 0-192-52-331-177-392-33-16-69-22-104-22-223 2-259 184-259 414 0 229 31 415 256 406" id="aJ"/><g id="z"><use transform="matrix(0.0087890625,0,0,0.0087890625,0,0)" xlink:href="#ay"/><use transform="matrix(0.0087890625,0,0,0.0087890625,10.8017578125,0)" xlink:href="#aJ"/><use transform="matrix(0.0087890625,0,0,0.0087890625,21.603515625,0)" xlink:href="#aJ"/><use transform="matrix(0.0087890625,0,0,0.0087890625,32.4052734375,0)" xlink:href="#ax"/><use transform="matrix(0.0087890625,0,0,0.0087890625,43.20703125,0)" xlink:href="#aw"/><use transform="matrix(0.0087890625,0,0,0.0087890625,54.0087890625,0)" xlink:href="#aJ"/><use transform="matrix(0.0087890625,0,0,0.0087890625,64.810546875,0)" xlink:href="#aj"/><use transform="matrix(0.0087890625,0,0,0.0087890625,75.6123046875,0)" xlink:href="#ao"/><use transform="matrix(0.0087890625,0,0,0.0087890625,86.4140625,0)" xlink:href="#aw"/></g><g id="A"><use transform="matrix(0.0087890625,0,0,0.0087890625,0,0)" xlink:href="#ai"/><use transform="matrix(0.0087890625,0,0,0.0087890625,10.8017578125,0)" xlink:href="#aw"/><use transform="matrix(0.0087890625,0,0,0.0087890625,21.603515625,0)" xlink:href="#aj"/><use transform="matrix(0.0087890625,0,0,0.0087890625,32.4052734375,0)" xlink:href="#aB"/></g><path d="M143 4C61 4 22-44 18-125c-5-107 100-154 193-111 17 8 29 25 37 43l-32 9c-13-25-37-40-76-40-61 0-88 39-88 99 0 61 29 100 91 101 35 0 62-11 79-27v-45h-74v-28h105v86C228-13 192 4 143 4" id="aK"/><g id="B"><use transform="matrix(0.05,0,0,0.05,0,0)" xlink:href="#aK"/><use transform="matrix(0.05,0,0,0.05,14,0)" xlink:href="#K"/><use transform="matrix(0.05,0,0,0.05,24,0)" xlink:href="#ad"/></g><path d="M266 0h-40l-56-210L115 0H75L2-248h35L96-30l15-64 43-154h32l59 218 59-218h35" id="aL"/><path d="M100-194c62-1 85 37 85 99 1 63-27 99-86 99S16-35 15-95c0-66 28-99 85-99zM99-20c44 1 53-31 53-75 0-43-8-75-51-75s-53 32-53 75 10 74 51 75" id="aM"/><g id="C"><use transform="matrix(0.05,0,0,0.05,0,0)" xlink:href="#aL"/><use transform="matrix(0.05,0,0,0.05,16.599999999999998,0)" xlink:href="#aM"/><use transform="matrix(0.05,0,0,0.05,26.599999999999994,0)" xlink:href="#W"/><use transform="matrix(0.05,0,0,0.05,32.55,0)" xlink:href="#L"/></g><path d="M212-179c-10-28-35-45-73-45-59 0-87 40-87 99 0 60 29 101 89 101 43 0 62-24 78-52l27 14C228-24 195 4 139 4 59 4 22-46 18-125c-6-104 99-153 187-111 19 9 31 26 39 46" id="aN"/><g id="D"><use transform="matrix(0.05,0,0,0.05,0,0)" xlink:href="#aN"/><use transform="matrix(0.05,0,0,0.05,12.950000000000001,0)" xlink:href="#aM"/><use transform="matrix(0.05,0,0,0.05,22.950000000000003,0)" xlink:href="#M"/><use transform="matrix(0.05,0,0,0.05,32.95,0)" xlink:href="#P"/><use transform="matrix(0.05,0,0,0.05,42.95,0)" xlink:href="#ad"/></g><path d="M140-251c81 0 123 46 123 126C263-53 228-8 163 1c7 30 30 48 69 40v23c-55 16-95-15-103-61C56-3 17-48 17-125c0-80 42-126 123-126zm0 227c63 0 89-41 89-101s-29-99-89-99c-61 0-89 39-89 99S79-25 140-24" id="aO"/><path d="M179-190L93 31C79 59 56 82 12 73V49c39 6 53-20 64-50L1-190h34L92-34l54-156h33" id="aP"/><g id="E"><use transform="matrix(0.05,0,0,0.05,0,0)" xlink:href="#aO"/><use transform="matrix(0.05,0,0,0.05,14,0)" xlink:href="#M"/><use transform="matrix(0.05,0,0,0.05,24,0)" xlink:href="#K"/><use transform="matrix(0.05,0,0,0.05,34,0)" xlink:href="#W"/><use transform="matrix(0.05,0,0,0.05,39.95,0)" xlink:href="#aP"/></g></defs></g></svg>